# xmcd
# Track frame offsets:
# 150
# 17559
# 31779
# 44910
# 62604
# 75443
# 88687
# 101694
# 114871
# 130309
# 141855
# 156162
# 171540
# 185247
# 197445
# 214891
# 227151
# 242377
# 258438
#
# Disc length: 3674 seconds
# Revision: 0
# Processed by: cddbd v1.5.1PL0 Copyright (c) Steve Scherf et al.
# Submitted via: VisiTrax 2.9.10.228 - For more info visit www.synapsa.com
#
DISCID=050e5813
DTITLE=Various Artist - Hott Country 035
DYEAR=1900
DGENRE=Country
TTITLE0=Mark Chesnutt - I Don't Want To Miss A Thing
TTITLE1=Joe Diffie - Behind Closed Doors
TTITLE2=Gary Allan - I'll Take Today
TTITLE3=South Sixty Five - A Random Act Of Senseless Kindness
TTITLE4=Reba McEntire - Wrong Night
TTITLE5=Trisha Yearwood - Powerful Thing
TTITLE6=Alabama - Keepin' Up
TTITLE7=Billy Dean - Innocent Bystander
TTITLE8=Tractors - Shortenin' Bread
TTITLE9=Jon Randall - She Don't Believe In Fairy Tales
TTITLE10=Keith Harling - Write It In Stone
TTITLE11=Tracy Lawrence - I'll Never Pass This Way Again
TTITLE12=Suzy Bogguss - From Where I Stand
TTITLE13=Rodney Crowell and Johnny Cash - I Walk The Line
TTITLE14=Prairie Oyster - Canadian Sunrise
TTITLE15=Brady Seals - Whole Lotta Hurt
TTITLE16=Duane Steele - Right From The Start
TTITLE17=Randy Scruggs and Mary Chapin Carpenter - It's Only Love
TTITLE18=Jason McCoy - There's More Where That Came From
EXTD=
EXTT0=
EXTT1=
EXTT2=
EXTT3=
EXTT4=
EXTT5=
EXTT6=
EXTT7=
EXTT8=
EXTT9=
EXTT10=
EXTT11=
EXTT12=
EXTT13=
EXTT14=
EXTT15=
EXTT16=
EXTT17=
EXTT18=
PLAYORDER=
